<svg xmlns="http://www.w3.org/2000/svg" version="1.1" width="260" height="260"><path d="M8.756443470178592 80L26.076951545867367 70L26.076951545867367 50L112.67949192431124 0L130 10L147.32050807568876 0L181.96152422706632 20L181.96152422706632 40L199.28203230275506 30L233.92304845413264 50L233.92304845413264 70L251.24355652982138 80L251.24355652982138 120L233.92304845413264 130L251.24355652982138 140L251.24355652982138 180L233.92304845413264 170L225.26279441628822 175L199.28203230275506 160L199.28203230275506 140L216.60254037844385 150L216.60254037844385 110L155.98076211353316 145L155.98076211353316 175L130 190L104.01923788646684 175L104.01923788646684 145L78.03847577293368 130L78.03847577293368 100L104.01923788646684 85L130 100L190.6217782649107 65L155.98076211353316 45L155.98076211353316 65L130 50L104.01923788646684 65L104.01923788646684 45L69.3782217350893 65L86.69872981077808 75L86.69872981077808 85L69.3782217350893 95L69.3782217350893 115L60.717967697244916 120L43.39745962155614 110L43.39745962155614 150L52.05771365940052 145L52.05771365940052 175L78.03847577293368 190L69.3782217350893 195L104.01923788646684 215L104.01923788646684 195L112.67949192431124 190L130 200L147.32050807568876 190L155.98076211353316 195L155.98076211353316 215L190.6217782649107 195L173.3012701892219 185L199.28203230275506 170L199.28203230275506 160L225.26279441628822 175L233.92304845413264 170L251.24355652982138 180L233.92304845413264 190L233.92304845413264 210L147.32050807568876 260L130 250L112.67949192431124 260L78.03847577293368 240L78.03847577293368 220L60.717967697244916 230L26.076951545867367 210L26.076951545867367 190L8.756443470178592 180L8.756443470178592 140L26.076951545867367 130L8.756443470178592 120Z" fill="#5c4d48"/><path d="M52.05771365940052 135L60.717967697244916 130L95.35898384862244 150L95.35898384862244 190L78.03847577293368 180L78.03847577293368 160L60.717967697244916 150L60.717967697244916 170L95.35898384862244 190L86.69872981077808 195L52.05771365940052 175Z" fill="#e7ded5"/><path d="M164.64101615137753 70L173.3012701892219 65L181.96152422706632 70L173.3012701892219 75Z" fill="#e7ded5"/><path d="M199.28203230275506 120L207.94228634059948 115L207.94228634059948 125L199.28203230275506 130Z" fill="#e7ded5"/><path d="M60.717967697244916 120L69.3782217350893 115L69.3782217350893 95L86.69872981077808 85L86.69872981077808 75L130 50L173.3012701892219 75L130 100L104.01923788646684 85L78.03847577293368 100L78.03847577293368 130L104.01923788646684 145L104.01923788646684 175L130 190L155.98076211353316 175L155.98076211353316 145L199.28203230275506 120L199.28203230275506 170L155.98076211353316 195L147.32050807568876 190L130 200L112.67949192431124 190L104.01923788646684 195L95.35898384862244 190L95.35898384862244 150L60.717967697244916 130Z" fill="#ff0000"/><path d="M60.717967697244916 150L78.03847577293368 160L78.03847577293368 180L60.717967697244916 170Z" fill="#ee15f4"/><path d="M8.756443470178592 80L26.076951545867367 90L26.076951545867367 70L60.717967697244916 90L60.717967697244916 120L34.737205583711756 105L34.737205583711756 135L8.756443470178592 120Z" fill="#00000026"/><path d="M8.756443470178592 140L34.737205583711756 155L34.737205583711756 185L60.717967697244916 200L60.717967697244916 230L26.076951545867367 210L26.076951545867367 190L8.756443470178592 180Z" fill="#00000026"/><path d="M26.076951545867367 50L43.39745962155614 60L26.076951545867367 70Z" fill="#00000026"/><path d="M52.05771365940052 135L86.69872981077808 155L86.69872981077808 195L52.05771365940052 175Z" fill="#00000026"/><path d="M60.717967697244916 120L69.3782217350893 115L69.3782217350893 95L112.67949192431124 120L112.67949192431124 140L130 150L130 200L112.67949192431124 190L104.01923788646684 195L95.35898384862244 190L95.35898384862244 150L60.717967697244916 130Z" fill="#00000026"/><path d="M78.03847577293368 210L104.01923788646684 225L104.01923788646684 195L130 210L130 250L112.67949192431124 240L112.67949192431124 260L78.03847577293368 240Z" fill="#00000026"/><path d="M104.01923788646684 45L112.67949192431124 40L112.67949192431124 60L104.01923788646684 65Z" fill="#00000026"/><path d="M121.3397459621556 125L130 130L130 140L121.3397459621556 135Z" fill="#00000026"/><path d="M130 20L155.98076211353316 35L155.98076211353316 45L147.32050807568876 40L147.32050807568876 60L130 50Z" fill="#00000026"/><path d="M130 110L147.32050807568876 120L147.32050807568876 140L138.66025403784437 135L138.66025403784437 125L130 120Z" fill="#00000026"/><path d="M130 250L147.32050807568876 240L147.32050807568876 260Z" fill="#00000026"/><path d="M155.98076211353316 45L173.3012701892219 35L173.3012701892219 45L199.28203230275506 60L190.6217782649107 65Z" fill="#00000026"/><path d="M173.3012701892219 185L181.96152422706632 180L199.28203230275506 190L190.6217782649107 195Z" fill="#00000026"/><path d="M199.28203230275506 150L216.60254037844385 160L216.60254037844385 150L225.26279441628822 155L225.26279441628822 185L199.28203230275506 170Z" fill="#00000026"/><path d="M216.60254037844385 110L225.26279441628822 105L225.26279441628822 135L233.92304845413264 140L216.60254037844385 150Z" fill="#00000026"/><path d="M26.076951545867367 140L34.737205583711756 135L34.737205583711756 105L43.39745962155614 110L43.39745962155614 150Z" fill="#00000066"/><path d="M34.737205583711756 155L43.39745962155614 150L43.39745962155614 160L52.05771365940052 155L52.05771365940052 175L34.737205583711756 185Z" fill="#00000066"/><path d="M60.717967697244916 60L130 20L130 50L112.67949192431124 60L112.67949192431124 40L69.3782217350893 65Z" fill="#00000066"/><path d="M60.717967697244916 90L86.69872981077808 75L86.69872981077808 85L69.3782217350893 95L69.3782217350893 115L60.717967697244916 120Z" fill="#00000066"/><path d="M60.717967697244916 190L69.3782217350893 185L78.03847577293368 190L69.3782217350893 195Z" fill="#00000066"/><path d="M60.717967697244916 200L69.3782217350893 195L69.3782217350893 215L78.03847577293368 210L78.03847577293368 220L60.717967697244916 230Z" fill="#00000066"/><path d="M86.69872981077808 155L95.35898384862244 150L95.35898384862244 190L86.69872981077808 195Z" fill="#00000066"/><path d="M112.67949192431124 120L130 110L130 120L121.3397459621556 125L121.3397459621556 135L112.67949192431124 140Z" fill="#00000066"/><path d="M112.67949192431124 240L130 250L112.67949192431124 260Z" fill="#00000066"/><path d="M130 130L138.66025403784437 125L138.66025403784437 135L130 140Z" fill="#00000066"/><path d="M130 150L147.32050807568876 140L147.32050807568876 120L233.92304845413264 70L233.92304845413264 90L251.24355652982138 80L251.24355652982138 120L225.26279441628822 135L225.26279441628822 105L207.94228634059948 115L207.94228634059948 125L199.28203230275506 130L199.28203230275506 170L155.98076211353316 195L147.32050807568876 190L130 200Z" fill="#00000066"/><path d="M130 210L155.98076211353316 195L155.98076211353316 225L225.26279441628822 185L225.26279441628822 155L251.24355652982138 140L251.24355652982138 180L233.92304845413264 190L233.92304845413264 210L147.32050807568876 260L147.32050807568876 240L130 250Z" fill="#00000066"/><path d="M147.32050807568876 40L155.98076211353316 45L155.98076211353316 65L147.32050807568876 60Z" fill="#00000066"/><path d="M155.98076211353316 35L181.96152422706632 20L181.96152422706632 40L173.3012701892219 45L173.3012701892219 35L155.98076211353316 45Z" fill="#00000066"/><path d="M216.60254037844385 60L233.92304845413264 50L233.92304845413264 70Z" fill="#00000066"/><path d="M26.076951545867367 130L34.737205583711756 135L43.39745962155614 130L43.39745962155614 150L26.076951545867367 140Z" fill="#da08b7cf"/><path d="M43.39745962155614 110L60.717967697244916 120L60.717967697244916 130L52.05771365940052 135L52.05771365940052 175L43.39745962155614 180Z" fill="#e13575f7"/><path d="M43.39745962155614 180L52.05771365940052 175L86.69872981077808 195L95.35898384862244 190L104.01923788646684 195L104.01923788646684 215Z" fill="#f13a7cf3"/><path d="M60.717967697244916 120L69.3782217350893 115L69.3782217350893 95L78.03847577293368 100L78.03847577293368 130L104.01923788646684 145L104.01923788646684 175L130 190L130 200L112.67949192431124 190L104.01923788646684 195L95.35898384862244 190L95.35898384862244 150L60.717967697244916 130Z" fill="#ee3188ca"/><path d="M69.3782217350893 65L130 30L130 50L86.69872981077808 75Z" fill="#ea3976f7"/><path d="M69.3782217350893 95L86.69872981077808 85L86.69872981077808 75L130 50L173.3012701892219 75L130 100L104.01923788646684 85L78.03847577293368 100Z" fill="#fb368bc5"/><path d="M69.3782217350893 195L86.69872981077808 205L78.03847577293368 210L78.03847577293368 220L69.3782217350893 215Z" fill="#f909d1c3"/><path d="M130 30L190.6217782649107 65L173.3012701892219 75L130 50Z" fill="#f43d7af4"/><path d="M130 190L155.98076211353316 175L155.98076211353316 145L199.28203230275506 120L199.28203230275506 170L155.98076211353316 195L147.32050807568876 190L130 200Z" fill="#db2983d1"/><path d="M155.98076211353316 45L173.3012701892219 35L181.96152422706632 40L173.3012701892219 45L173.3012701892219 55Z" fill="#ed09c7c7"/><path d="M216.60254037844385 130L225.26279441628822 135L233.92304845413264 130L233.92304845413264 140L216.60254037844385 150Z" fill="#ed09c7c7"/><path d="M155.98076211353316 195L199.28203230275506 170L216.60254037844385 180L155.98076211353316 215Z" fill="#e03279f5"/><path d="M199.28203230275506 120L216.60254037844385 110L216.60254037844385 180L199.28203230275506 170Z" fill="#db3077f6"/><path d="M26.076951545867367 130L34.737205583711756 135L43.39745962155614 130L43.39745962155614 110L60.717967697244916 120L69.3782217350893 115L69.3782217350893 95L78.03847577293368 100L78.03847577293368 130L104.01923788646684 145L104.01923788646684 175L130 190L130 200L104.01923788646684 185L95.35898384862244 190L95.35898384862244 150L60.717967697244916 130L52.05771365940052 135L52.05771365940052 175L86.69872981077808 195L104.01923788646684 185L112.67949192431124 190L104.01923788646684 195L104.01923788646684 215L86.69872981077808 205L78.03847577293368 210L78.03847577293368 220L69.3782217350893 215L69.3782217350893 195L43.39745962155614 180L43.39745962155614 150L26.076951545867367 140Z" fill="#00000014"/><path d="M130 190L155.98076211353316 175L155.98076211353316 145L216.60254037844385 110L216.60254037844385 130L225.26279441628822 135L233.92304845413264 130L233.92304845413264 140L216.60254037844385 150L216.60254037844385 180L155.98076211353316 215L155.98076211353316 195L147.32050807568876 190L130 200Z" fill="#00000034"/></svg>
