<svg xmlns="http://www.w3.org/2000/svg" version="1.1" width="329.08965343808666" height="329.08965343808666"><path d="M0 159.54482671904333L43.301270189221924 134.54482671904333L43.301270189221924 154.54482671904333L60.6217782649107 164.54482671904333L43.301270189221924 174.54482671904333L173.2050807568877 249.54482671904333L285.78838324886476 184.54482671904333L285.78838324886476 174.54482671904333L268.4678751731759 164.54482671904333L285.78838324886476 154.54482671904333L285.78838324886476 144.54482671904333L329.08965343808666 169.54482671904333L329.08965343808666 199.54482671904333L173.2050807568877 289.54482671904333L0 189.54482671904333Z" fill="#ad8867"/><path d="M77.94228634059947 144.54482671904333L86.60254037844385 149.54482671904333L77.94228634059947 154.54482671904333Z" fill="#ad8867"/><path d="M103.92304845413264 99.54482671904333L138.56406460551017 79.54482671904333L138.56406460551017 99.54482671904333L121.2435565298214 109.54482671904333Z" fill="#ad8867"/><path d="M43.301270189221924 114.54482671904333L60.6217782649107 104.54482671904333L60.6217782649107 84.54482671904333L103.92304845413264 59.544826719043336L138.56406460551017 79.54482671904333L103.92304845413264 99.54482671904333L121.2435565298214 109.54482671904333L121.2435565298214 119.54482671904333L103.92304845413264 129.54482671904333L103.92304845413264 149.54482671904333L95.26279441628824 154.54482671904333L77.94228634059947 144.54482671904333L77.94228634059947 184.54482671904333L86.60254037844385 179.54482671904333L86.60254037844385 199.54482671904333L43.301270189221924 174.54482671904333L60.6217782649107 164.54482671904333L43.301270189221924 154.54482671904333Z" fill="#5c4d48"/><path d="M60.6217782649107 224.54482671904333L112.58330249197701 254.54482671904333L95.26279441628824 264.54482671904333L60.6217782649107 244.54482671904333Z" fill="#5c4d48"/><path d="M112.58330249197701 134.54482671904333L138.56406460551017 119.54482671904333L164.54482671904333 134.54482671904333L199.18584287042086 114.54482671904333L225.16660498395402 129.54482671904333L225.16660498395402 159.54482671904333L190.5255888325765 179.54482671904333L190.5255888325765 209.54482671904333L164.54482671904333 224.54482671904333L138.56406460551017 209.54482671904333L138.56406460551017 179.54482671904333L112.58330249197701 164.54482671904333Z" fill="#5c4d48"/><path d="M112.58330249197701 254.54482671904333L164.54482671904333 284.54482671904333L147.22431864335456 294.54482671904333L112.58330249197701 274.54482671904333Z" fill="#5c4d48"/><path d="M129.90381056766577 44.544826719043336L147.22431864335456 34.544826719043336L164.54482671904333 44.544826719043336L181.86533479473212 34.544826719043336L216.50635094610965 54.544826719043336L216.50635094610965 74.54482671904333L233.82685902179844 64.54482671904333L268.4678751731759 84.54482671904333L268.4678751731759 104.54482671904333L285.78838324886476 114.54482671904333L285.78838324886476 154.54482671904333L268.4678751731759 164.54482671904333L285.78838324886476 174.54482671904333L285.78838324886476 184.54482671904333L251.14736709748718 204.54482671904333L251.14736709748718 114.54482671904333Z" fill="#5c4d48"/><path d="M138.56406460551017 79.54482671904333L155.88457268119893 89.54482671904333L138.56406460551017 99.54482671904333Z" fill="#5c4d48"/><path d="M138.56406460551017 229.54482671904333L147.22431864335456 224.54482671904333L164.54482671904333 234.54482671904333L181.86533479473212 224.54482671904333L190.5255888325765 229.54482671904333L190.5255888325765 239.54482671904333L173.2050807568877 249.54482671904333Z" fill="#5c4d48"/><path d="M173.2050807568877 289.54482671904333L225.16660498395402 259.54482671904333L225.16660498395402 269.54482671904333L181.86533479473212 294.54482671904333Z" fill="#5c4d48"/><path d="M207.84609690826528 219.54482671904333L225.16660498395402 209.54482671904333L225.16660498395402 219.54482671904333L216.50635094610965 224.54482671904333Z" fill="#5c4d48"/><path d="M251.14736709748718 244.54482671904333L268.4678751731759 234.54482671904333L268.4678751731759 244.54482671904333L251.14736709748718 254.54482671904333Z" fill="#5c4d48"/><path d="M77.94228634059947 34.544826719043336L95.26279441628824 24.544826719043336L251.14736709748718 114.54482671904333L251.14736709748718 204.54482671904333L225.16660498395402 219.54482671904333L225.16660498395402 129.54482671904333L103.92304845413264 59.544826719043336L77.94228634059947 74.54482671904333Z" fill="#ee15f4"/><path d="M77.94228634059947 154.54482671904333L86.60254037844385 149.54482671904333L95.26279441628824 154.54482671904333L95.26279441628824 164.54482671904333L86.60254037844385 169.54482671904333L86.60254037844385 179.54482671904333L77.94228634059947 184.54482671904333Z" fill="#ee15f4"/><path d="M95.26279441628824 184.54482671904333L112.58330249197701 194.54482671904333L112.58330249197701 214.54482671904333L95.26279441628824 204.54482671904333Z" fill="#ee15f4"/><path d="M199.18584287042086 284.54482671904333L225.16660498395402 269.54482671904333L225.16660498395402 259.54482671904333L251.14736709748718 244.54482671904333L251.14736709748718 294.54482671904333L233.82685902179844 304.54482671904333Z" fill="#ee15f4"/><path d="M86.60254037844385 169.54482671904333L95.26279441628824 164.54482671904333L129.90381056766577 184.54482671904333L129.90381056766577 224.54482671904333L112.58330249197701 214.54482671904333L112.58330249197701 194.54482671904333L95.26279441628824 184.54482671904333L95.26279441628824 204.54482671904333L86.60254037844385 199.54482671904333Z" fill="#e7ded5"/><path d="M95.26279441628824 154.54482671904333L103.92304845413264 149.54482671904333L103.92304845413264 129.54482671904333L121.2435565298214 119.54482671904333L121.2435565298214 109.54482671904333L155.88457268119893 89.54482671904333L199.18584287042086 114.54482671904333L164.54482671904333 134.54482671904333L138.56406460551017 119.54482671904333L112.58330249197701 134.54482671904333L112.58330249197701 164.54482671904333L138.56406460551017 179.54482671904333L138.56406460551017 209.54482671904333L164.54482671904333 224.54482671904333L190.5255888325765 209.54482671904333L190.5255888325765 179.54482671904333L225.16660498395402 159.54482671904333L225.16660498395402 209.54482671904333L190.5255888325765 229.54482671904333L181.86533479473212 224.54482671904333L164.54482671904333 234.54482671904333L147.22431864335456 224.54482671904333L138.56406460551017 229.54482671904333L129.90381056766577 224.54482671904333L129.90381056766577 184.54482671904333L95.26279441628824 164.54482671904333Z" fill="#ff0000"/><path d="M0 159.54482671904333L173.2050807568877 259.54482671904333L173.2050807568877 289.54482671904333L147.22431864335456 274.54482671904333L147.22431864335456 294.54482671904333L112.58330249197701 274.54482671904333L112.58330249197701 254.54482671904333L95.26279441628824 244.54482671904333L95.26279441628824 264.54482671904333L60.6217782649107 244.54482671904333L60.6217782649107 224.54482671904333L0 189.54482671904333Z" fill="#00000026"/><path d="M43.301270189221924 114.54482671904333L60.6217782649107 124.54482671904333L60.6217782649107 104.54482671904333L95.26279441628824 124.54482671904333L95.26279441628824 154.54482671904333L69.28203230275508 139.54482671904333L69.28203230275508 169.54482671904333L43.301270189221924 154.54482671904333Z" fill="#00000026"/><path d="M60.6217782649107 84.54482671904333L77.94228634059947 94.54482671904333L60.6217782649107 104.54482671904333Z" fill="#00000026"/><path d="M77.94228634059947 34.544826719043336L233.82685902179844 124.54482671904333L233.82685902179844 214.54482671904333L225.16660498395402 219.54482671904333L225.16660498395402 129.54482671904333L147.22431864335456 84.54482671904333L147.22431864335456 94.54482671904333L138.56406460551017 99.54482671904333L138.56406460551017 79.54482671904333L86.60254037844385 49.544826719043336L86.60254037844385 69.54482671904333L77.94228634059947 74.54482671904333Z" fill="#00000026"/><path d="M77.94228634059947 154.54482671904333L86.60254037844385 149.54482671904333L86.60254037844385 169.54482671904333L121.2435565298214 189.54482671904333L121.2435565298214 219.54482671904333L86.60254037844385 199.54482671904333L86.60254037844385 179.54482671904333L77.94228634059947 184.54482671904333Z" fill="#00000026"/><path d="M95.26279441628824 154.54482671904333L103.92304845413264 149.54482671904333L103.92304845413264 129.54482671904333L147.22431864335456 154.54482671904333L147.22431864335456 174.54482671904333L164.54482671904333 184.54482671904333L164.54482671904333 234.54482671904333L147.22431864335456 224.54482671904333L138.56406460551017 229.54482671904333L129.90381056766577 224.54482671904333L129.90381056766577 184.54482671904333L95.26279441628824 164.54482671904333Z" fill="#00000026"/><path d="M155.88457268119893 159.54482671904333L164.54482671904333 164.54482671904333L164.54482671904333 174.54482671904333L155.88457268119893 169.54482671904333Z" fill="#00000026"/><path d="M164.54482671904333 54.544826719043336L190.5255888325765 69.54482671904333L190.5255888325765 79.54482671904333L164.54482671904333 64.54482671904333Z" fill="#00000026"/><path d="M164.54482671904333 144.54482671904333L181.86533479473212 154.54482671904333L181.86533479473212 174.54482671904333L173.2050807568877 169.54482671904333L173.2050807568877 159.54482671904333L164.54482671904333 154.54482671904333Z" fill="#00000026"/><path d="M173.2050807568877 289.54482671904333L181.86533479473212 284.54482671904333L181.86533479473212 294.54482671904333Z" fill="#00000026"/><path d="M190.5255888325765 79.54482671904333L207.84609690826528 69.54482671904333L207.84609690826528 79.54482671904333L233.82685902179844 94.54482671904333L225.16660498395402 99.54482671904333Z" fill="#00000026"/><path d="M199.18584287042086 284.54482671904333L207.84609690826528 279.54482671904333L225.16660498395402 289.54482671904333L225.16660498395402 259.54482671904333L233.82685902179844 254.54482671904333L233.82685902179844 304.54482671904333Z" fill="#00000026"/><path d="M207.84609690826528 219.54482671904333L216.50635094610965 214.54482671904333L225.16660498395402 219.54482671904333L216.50635094610965 224.54482671904333Z" fill="#00000026"/><path d="M251.14736709748718 144.54482671904333L259.8076211353316 139.54482671904333L259.8076211353316 169.54482671904333L268.4678751731759 174.54482671904333L251.14736709748718 184.54482671904333Z" fill="#00000026"/><path d="M251.14736709748718 184.54482671904333L259.8076211353316 189.54482671904333L259.8076211353316 199.54482671904333L251.14736709748718 204.54482671904333Z" fill="#00000026"/><path d="M268.4678751731759 164.54482671904333L285.78838324886476 154.54482671904333L311.76914536239786 169.54482671904333L285.78838324886476 184.54482671904333L285.78838324886476 174.54482671904333Z" fill="#00000026"/><path d="M17.320508075688767 159.54482671904333L43.301270189221924 144.54482671904333L43.301270189221924 154.54482671904333L60.6217782649107 164.54482671904333L43.301270189221924 174.54482671904333Z" fill="#00000066"/><path d="M60.6217782649107 174.54482671904333L69.28203230275508 169.54482671904333L69.28203230275508 139.54482671904333L86.60254037844385 149.54482671904333L77.94228634059947 154.54482671904333L77.94228634059947 184.54482671904333Z" fill="#00000066"/><path d="M69.28203230275508 189.54482671904333L77.94228634059947 184.54482671904333L77.94228634059947 194.54482671904333Z" fill="#00000066"/><path d="M77.94228634059947 194.54482671904333L86.60254037844385 189.54482671904333L86.60254037844385 199.54482671904333Z" fill="#00000066"/><path d="M86.60254037844385 49.544826719043336L103.92304845413264 59.544826719043336L86.60254037844385 69.54482671904333Z" fill="#00000066"/><path d="M86.60254037844385 149.54482671904333L95.26279441628824 154.54482671904333L95.26279441628824 164.54482671904333L86.60254037844385 169.54482671904333Z" fill="#00000066"/><path d="M95.26279441628824 94.54482671904333L129.90381056766577 74.54482671904333L138.56406460551017 79.54482671904333L103.92304845413264 99.54482671904333Z" fill="#00000066"/><path d="M95.26279441628824 124.54482671904333L121.2435565298214 109.54482671904333L121.2435565298214 119.54482671904333L103.92304845413264 129.54482671904333L103.92304845413264 149.54482671904333L95.26279441628824 154.54482671904333Z" fill="#00000066"/><path d="M95.26279441628824 244.54482671904333L112.58330249197701 254.54482671904333L95.26279441628824 264.54482671904333Z" fill="#00000066"/><path d="M112.58330249197701 104.54482671904333L138.56406460551017 89.54482671904333L138.56406460551017 99.54482671904333L121.2435565298214 109.54482671904333Z" fill="#00000066"/><path d="M121.2435565298214 189.54482671904333L129.90381056766577 184.54482671904333L129.90381056766577 224.54482671904333L121.2435565298214 219.54482671904333Z" fill="#00000066"/><path d="M147.22431864335456 84.54482671904333L155.88457268119893 89.54482671904333L147.22431864335456 94.54482671904333Z" fill="#00000066"/><path d="M147.22431864335456 154.54482671904333L164.54482671904333 144.54482671904333L164.54482671904333 154.54482671904333L155.88457268119893 159.54482671904333L155.88457268119893 169.54482671904333L147.22431864335456 174.54482671904333Z" fill="#00000066"/><path d="M147.22431864335456 274.54482671904333L164.54482671904333 284.54482671904333L147.22431864335456 294.54482671904333Z" fill="#00000066"/><path d="M155.88457268119893 59.544826719043336L164.54482671904333 54.544826719043336L164.54482671904333 64.54482671904333Z" fill="#00000066"/><path d="M164.54482671904333 164.54482671904333L173.2050807568877 159.54482671904333L173.2050807568877 169.54482671904333L164.54482671904333 174.54482671904333Z" fill="#00000066"/><path d="M164.54482671904333 184.54482671904333L181.86533479473212 174.54482671904333L181.86533479473212 154.54482671904333L225.16660498395402 129.54482671904333L225.16660498395402 209.54482671904333L190.5255888325765 229.54482671904333L181.86533479473212 224.54482671904333L164.54482671904333 234.54482671904333Z" fill="#00000066"/><path d="M164.54482671904333 244.54482671904333L190.5255888325765 229.54482671904333L190.5255888325765 239.54482671904333L173.2050807568877 249.54482671904333Z" fill="#00000066"/><path d="M173.2050807568877 259.54482671904333L329.08965343808666 169.54482671904333L329.08965343808666 199.54482671904333L268.4678751731759 234.54482671904333L268.4678751731759 244.54482671904333L251.14736709748718 254.54482671904333L251.14736709748718 294.54482671904333L233.82685902179844 304.54482671904333L233.82685902179844 254.54482671904333L225.16660498395402 259.54482671904333L225.16660498395402 269.54482671904333L181.86533479473212 294.54482671904333L181.86533479473212 284.54482671904333L173.2050807568877 289.54482671904333Z" fill="#00000066"/><path d="M190.5255888325765 69.54482671904333L216.50635094610965 54.544826719043336L216.50635094610965 74.54482671904333L207.84609690826528 79.54482671904333L207.84609690826528 69.54482671904333L190.5255888325765 79.54482671904333Z" fill="#00000066"/><path d="M233.82685902179844 124.54482671904333L268.4678751731759 104.54482671904333L268.4678751731759 124.54482671904333L285.78838324886476 114.54482671904333L285.78838324886476 154.54482671904333L259.8076211353316 169.54482671904333L259.8076211353316 139.54482671904333L251.14736709748718 144.54482671904333L251.14736709748718 204.54482671904333L233.82685902179844 214.54482671904333Z" fill="#00000066"/><path d="M251.14736709748718 94.54482671904333L268.4678751731759 84.54482671904333L268.4678751731759 104.54482671904333Z" fill="#00000066"/><path d="M259.8076211353316 189.54482671904333L285.78838324886476 174.54482671904333L285.78838324886476 184.54482671904333L259.8076211353316 199.54482671904333Z" fill="#00000066"/><path d="M60.6217782649107 164.54482671904333L69.28203230275508 169.54482671904333L77.94228634059947 164.54482671904333L77.94228634059947 184.54482671904333L60.6217782649107 174.54482671904333Z" fill="#da08b7cf"/><path d="M77.94228634059947 144.54482671904333L95.26279441628824 154.54482671904333L95.26279441628824 164.54482671904333L86.60254037844385 169.54482671904333L86.60254037844385 199.54482671904333L77.94228634059947 194.54482671904333Z" fill="#e13575f7"/><path d="M95.26279441628824 154.54482671904333L103.92304845413264 149.54482671904333L103.92304845413264 129.54482671904333L112.58330249197701 134.54482671904333L112.58330249197701 164.54482671904333L138.56406460551017 179.54482671904333L138.56406460551017 209.54482671904333L164.54482671904333 224.54482671904333L164.54482671904333 234.54482671904333L147.22431864335456 224.54482671904333L138.56406460551017 229.54482671904333L129.90381056766577 224.54482671904333L129.90381056766577 184.54482671904333L95.26279441628824 164.54482671904333Z" fill="#ee3188ca"/><path d="M103.92304845413264 99.54482671904333L138.56406460551017 79.54482671904333L155.88457268119893 89.54482671904333L121.2435565298214 109.54482671904333Z" fill="#ea3976f7"/><path d="M103.92304845413264 129.54482671904333L121.2435565298214 119.54482671904333L121.2435565298214 109.54482671904333L155.88457268119893 89.54482671904333L199.18584287042086 114.54482671904333L164.54482671904333 134.54482671904333L138.56406460551017 119.54482671904333L112.58330249197701 134.54482671904333Z" fill="#fb368bc5"/><path d="M164.54482671904333 224.54482671904333L190.5255888325765 209.54482671904333L190.5255888325765 179.54482671904333L225.16660498395402 159.54482671904333L225.16660498395402 209.54482671904333L190.5255888325765 229.54482671904333L181.86533479473212 224.54482671904333L164.54482671904333 234.54482671904333Z" fill="#db2983d1"/><path d="M190.5255888325765 79.54482671904333L207.84609690826528 69.54482671904333L216.50635094610965 74.54482671904333L207.84609690826528 79.54482671904333L207.84609690826528 89.54482671904333Z" fill="#ed09c7c7"/><path d="M251.14736709748718 164.54482671904333L259.8076211353316 169.54482671904333L268.4678751731759 164.54482671904333L268.4678751731759 174.54482671904333L251.14736709748718 184.54482671904333Z" fill="#ed09c7c7"/><path d="M190.5255888325765 229.54482671904333L225.16660498395402 209.54482671904333L225.16660498395402 219.54482671904333L190.5255888325765 239.54482671904333Z" fill="#e03279f5"/><path d="M60.6217782649107 164.54482671904333L69.28203230275508 169.54482671904333L77.94228634059947 164.54482671904333L77.94228634059947 144.54482671904333L95.26279441628824 154.54482671904333L103.92304845413264 149.54482671904333L103.92304845413264 129.54482671904333L112.58330249197701 134.54482671904333L112.58330249197701 164.54482671904333L138.56406460551017 179.54482671904333L138.56406460551017 209.54482671904333L164.54482671904333 224.54482671904333L164.54482671904333 234.54482671904333L147.22431864335456 224.54482671904333L138.56406460551017 229.54482671904333L129.90381056766577 224.54482671904333L129.90381056766577 184.54482671904333L95.26279441628824 164.54482671904333L86.60254037844385 169.54482671904333L86.60254037844385 199.54482671904333L77.94228634059947 194.54482671904333L77.94228634059947 184.54482671904333L60.6217782649107 174.54482671904333Z" fill="#00000014"/><path d="M164.54482671904333 224.54482671904333L190.5255888325765 209.54482671904333L190.5255888325765 179.54482671904333L225.16660498395402 159.54482671904333L225.16660498395402 219.54482671904333L190.5255888325765 239.54482671904333L190.5255888325765 229.54482671904333L181.86533479473212 224.54482671904333L164.54482671904333 234.54482671904333Z" fill="#00000034"/><path d="M251.14736709748718 164.54482671904333L259.8076211353316 169.54482671904333L268.4678751731759 164.54482671904333L268.4678751731759 174.54482671904333L251.14736709748718 184.54482671904333Z" fill="#00000034"/></svg>
